<svg width="12" height="15" viewBox="0 0 12 15" fill="none" xmlns="http://www.w3.org/2000/svg">
<path d="M8.30963 9.69913H9.29808C10.4109 9.69913 11.4983 10.5107 11.3133 11.5545L11.1117 12.5439C10.8349 13.6957 10.2093 14.3993 9.09656 14.5H2.75075C1.63796 14.3993 1.03844 13.5222 0.735561 12.5439L0.534043 11.5545C0.288795 10.5418 1.43644 9.69913 2.54923 9.69913H3.51047M2.50389 3.85241C2.27618 3.85241 2.04866 4.04017 2.04866 4.27153V5.10959C2.04866 5.34076 2.2526 5.52889 2.50389 5.52889C2.50389 5.52889 3.18664 7.20482 3.64167 7.8336C3.92359 8.22322 4.32441 9.15849 5.91741 9.15849C7.51042 9.15849 7.91103 8.22322 8.19316 7.8336C8.64839 7.20482 9.33093 5.52889 9.33093 5.52889C9.58203 5.52889 9.78616 5.34076 9.78616 5.10959V4.27153C9.78616 4.04017 9.58203 3.85241 9.33093 3.85241V3.22382C9.33093 1.75718 8.42974 0.5 5.91741 0.5C3.41395 0.5 2.50389 1.75699 2.50389 3.22382V3.85241Z" stroke="white" stroke-miterlimit="10" stroke-linecap="round" stroke-linejoin="round"/>
</svg>
